/* XPM */
static char *_850f32a6aaf4f29d2ea0c60a75f52ad3N8wJuQt2yc0KqPp[] = {
/* columns rows colors chars-per-pixel */
"64 64 64 1 ",
"  c #440204",
". c #9C623C",
"X c #844204",
"o c #3C2E14",
"O c #C49A2C",
"+ c #EC6E0C",
"@ c #B44604",
"# c #6C4624",
"$ c #540604",
"% c #AC7A1C",
"& c #845634",
"* c #543E1C",
"= c #D48A5C",
"- c #CC5604",
"; c #2C1A0C",
": c #A46A3C",
"> c #4C361C",
", c #FC9E44",
"< c #744E2C",
"1 c #742A04",
"2 c #B47244",
"3 c #9C5A14",
"4 c #A43E04",
"5 c #442E1C",
"6 c #D4BA44",
"7 c #FC7E1C",
"8 c #C44E04",
"9 c #5C0604",
"0 c #8C5E34",
"q c #5C4224",
"w c #FC8E3C",
"e c #D45E0C",
"r c #342214",
"t c #AC6E44",
"y c #7C522C",
"u c #BC7A4C",
"i c black",
"p c black",
"a c black",
"s c black",
"d c black",
"f c black",
"g c black",
"h c black",
"j c black",
"k c black",
"l c black",
"z c black",
"x c black",
"c c black",
"v c black",
"b c black",
"n c black",
"m c black",
"M c black",
"N c black",
"B c black",
"V c black",
"C c black",
"Z c black",
"A c black",
"S c black",
"D c black",
"F c black",
/* pixels */
"5$111X33333333333333--333XX1>o>>>>>11XX33---33333333333333X1111>",
"$$$111XX3333333333333X1>>>#<y.:y#%:00#>o>1X33333333333333XX119$$",
"$$111XX33333333333X1o5q0tu2:0..yy%%%OO2.<*o513@33333333333X111$1",
"11111XXX33333333X1r>&%2%0q>>rr*&0#1111q&0:.#or143343333333311111",
"11111XXXX3X333X1r>0Ouy>rrrro5>>>1111$$rrr>#0.y>o133333333XXX1111",
"11111XXX33333Xoo0u%<or;r>>*1q1q11111111*r$$**&:yr*X333333XX11111",
"1X1XXXXX333X1oqOO<>$$>1#qq#qq111X1qqX11qqq111>q0&>;13333XXXXX1X1",
"11XXXXXX.3X1o&O01$$11qqq###y03XX33033Xq#qq*XX11o<&qr13333XX3XXX1",
"1XXXXXX3XX*>2O#o 11X<#qq##q:yqXX33%0X1<qq11X1*o;r>&yo1333XXXXXX1",
"XXXX3XXXX>*OOqr$1XXXX####XX<&<3333333XX111XX1>>or;>0t>1XXXX3XXXX",
"XXX1XXX155uO>rr11XXXXXXy<XXXy#<X3XX3XXXX1131*>>>>;;>&.o>XXXX1XXX",
"11111XX>r.uy#qXXXXXXXXXy<XX<##qXXXXXXyX1133>>>>>>*;r*&0o1XXX1111",
"1111XX*r.:>>q333%%u%u%33&XX##q#XXyX3XX11X3Xq**>>>>>rr>&0r1XX1111",
"1111X1r&O*rrq11XXX3333%%%%%%333X33XXXX1.%31q1yX1111>oro.y;XX1X11",
"111X1r>tqrr#1XXXX3XXXXXXXX.XXXX3%%%:33%OOO333333X1111r;>:#oXX111",
"1111o;0#;r11XXXXXXXXX3X3:3111X<XX33333OO76%%%%33XXXXX1qq<:r1X111",
"1XX1;#.r;511XXXXXXXXX3333-XXXXyX33333@3OO%333XXXXX3333OO<00r1XX1",
"111oo:#;r>11XXX3XX3333XXX33XXXy333-334@3X11XX1X333XXX3OOq*6q1111",
"111;&.r;o>1XXXXX333X3XXX333XX3%%%33XX43XX33333X3XX11&%%Xoo:t5111",
"XXrrtq;r>11XXXXX3XX3XX33XX%O%e%u33X3%%333XXXX3111X1333X.rr1O*1XX",
"X1r&%5;o11XXXXXXXXXXX:3XX3OO6O%%%%33e3X11<yyXXX1133X3<X3>;>:0rXX",
"X1rO0rr11XXXXXXXXXX333%%%O67O%XXXXX3@@XXX1XXXXX133X%Xq331oo#uo1X",
"1r*O*;r11XXXX33:3u33%%%%+e%O%X3XXX338XXXXX11XXX%31%X1X33*r;o2q*X",
"1r&:rr>1X33u%%%3331X38--4XX33XXXXX:33XXXXXX113%.X%X11X3Xqo;;0.rX",
"1;:.q#y33333XXXXXX3e--3X1XXX33X333e-3XXXX3XX3%XX%3$1XXX3X1r;q:o1",
"or2qor>*1XXXXXX33e--33X1XXXX38-ee---3XXXXXX%%XX%3X1X.333q*;r>O>1",
"5*torr>*qXXX3X3e--33X3XXXXX@@88343-3XXXXX3O.X1331X333XX<**or>u#1",
"r<toro>q#XXXX3%-3XXX331XXX:-@X11XX3311XX:O3XX%3XX33XX1qq**oro:yo",
"r0:r;5*qXXXXX%%31XXXXXXXX3-3X1XXXXX3XX1%%3XX%%X33XX11X1qq*>ro&&r",
";..rro*qXXXX3%uX1XXXXXXX8e3X1XXX32%3X3u333X%%33XXXXX1X1qq*>o>&to",
";.&5r>q#XXXXX%%X1XX33X33-3XXXXXu6,76O%3XX3%%33X1X3X1111111>r>ytr",
";.0>o>11XX3XX3333X33:X3-@XXX3X36,77w6%X313%33XX3XXX1111111*o>y2o",
"rt:*>1<XXXXXX33XX33X33--X3XX:X%6,,,,wuXXX%333:X1XXXX1XX<qq*>*&2o",
"5:.*o*#XXXXX:33XX33X3-%3X3XX3X36,,w7,%X3%333XXXX3XX11XXX<q1>*&t*",
"o..*o*#XXXXX333XX3X3--33XXXXXX36,777633OXX3%333XXXX11X<qqq>>*.t>",
"o0t>oq#XXXXX333XXXX3e3X3XXX1X4%O6666u3%3X33333XXXXX11X##qq>>>%t>",
">0O**>q<XXXX33XX1X3e%X13XXX1X%%33%%33%3X3XX3XX1X4XX11X<qqq**>:0q",
"q<Oq*>q1XXXXXXXX1Xee3XXXXX4.%:33XX33%3XXXXXXXXX3yXX11111qq>*>.<<",
"#*O#*>qy33:XX4yXX3e3XXX13X3%3XX3X33%3X3XXXXXX1XXXX111Xyy<q>**t*3",
"<>2&>o>0333XXXXX3e%XXXXXX%%333XX3O6%333XXXXX1XX4XX11XXy0<>>*<O*3",
"3>y.>>>#:33XXXX43%3XX&&3%3X3%%%3%6,%333XXXXXX4yXXX11XX3.<>q>:uq%",
"%*qt>>r*yyX33XX.-31X&y3%3Xue-333%OO3X33X3X11XXXXX11X33&yq>q*Oy<%",
"3#o.#>o*qXX333X3-3X1y%%33%3XX33%%:%3XXXXX11XXXXX1XX3XXt<>*q#O*33",
"3Xry0o>r>qXX3XX-3XXX3%X3%3XX113OX3O3XX311XXXX3X11X33XXyqo*>.:*03",
"3X>>.qqro1Xyy33-3X3%XX3%%333X3%XXXO311XXXXXXXXX*133y&<1r5q#OqX33",
"33Xoy0<qr><#qX3-X3%XXXu%3333%O:XXX%3XXXXXXX4X111#.Xyyqq$<:t2>333",
"%33>>yq0or**q13333X33%%XX3X3%e3XXX%3XXXXXXX&111Xy#<#qq5>:&t#X33%",
"%33Xoq&<qro*q13%3X3--e3XX33%3e3XXXe3XXXXX4X111#y<<y#q>>q&&<>333%",
"3333qq:<>*o>*X33.e--3-33XX%XX-3XXX33XXX4y111XX#y0&0q>r*>yOq3%333",
"33333>q0q*>r#yXX333X3-XX3%31Xe3XXX33XXX11XXXXX##y&q>r>>qO&q%3333",
"X3333X*<0>*<q>1XXXXX33XX%3XX3-X1113311XXXXXXXXX##<>r>>>%2*%33333",
"X3333%#>yy#q>o1q11XXX3X%3XXXe3XXXX38XXXXXXXXXXXqq>r>>o.t*0%3333X",
"333X333*>00*>>r*1q1XX3%3XXX83XXXX3X@XXXXXX4yXXX#>r>q>0Oqy%3333.3",
"XXXX333%*qt&o>>o>q<y<%%3X33XXXXXXXXeX1XX4yXy&&#>1q>>0=<#O%3.XXXX",
"XXX333%%0*>0&>>*>>q#331XXXXXXXXXXX3-3XX111Xy<qq#11>0uqq%O%%333XX",
"33333%%%%3oo0.*>*q*X311XXXXXX3XyX333XXX111111q#q1quuq1%%%%%33333",
"33333%%%%%X>o&:#>*<31$11XXX4X##q<######1q1111#q>yOu>13%%%%%%%%33",
"33333.3%33331r#:.<&q1q1111X1#<#qq#qqq>>$$111qq#%O0>X333%%:333:33",
"%%%33%%%33333Xo>0utyq111111111q111111>>1111qytO2q13%333.%%%33%%%",
"%%%%%%%3:333330<>#u6u01111XXqqq#qq#qq*>1>1y:uty*3%%33333%%%%%%%%",
"333%%%%3333333%O3q*#:OO%3X<qq#qqqqq*qqq#0OO:q*<%O%%33333%%%%%333",
"3333:3%3333333%%%%3#>>y:OOt%%:&&&00.2:2t:<*q3%%%%%%.3333%%3:3333",
"3333333333333333%%%%0X1qqqy0%u%t222::yq**103%%%%%%33333%%%333333",
"333XXX333333333333333%%O03X1qqqq#qqqqX0%OO%333%%:3333333333XX333"
};
