/* XPM */
static char *cbd67d90808c4263fd9323337008c0649KPQgL9bmW54JUH0[] = {
/* columns rows colors chars-per-pixel */
"128 128 64 1 ",
"  c #0C0A0C",
". c #8C2224",
"X c #343634",
"o c #540604",
"O c #6C4624",
"+ c #8C5E34",
"@ c #1C1A1C",
"# c #4C361C",
"$ c #AC4204",
"% c #7C1A1C",
"& c #342214",
"* c #544234",
"= c #6C5644",
"- c #CC5604",
"; c #6C0E0C",
": c #242624",
"> c #F47214",
", c #440204",
"< c #942E04",
"1 c #444244",
"2 c #543E1C",
"3 c #C44E04",
"4 c #141214",
"5 c #744E2C",
"6 c #2C1A0C",
"7 c #A43A3C",
"8 c #742A04",
"9 c #3C2A1C",
"0 c #FC5E5C",
"q c #443224",
"w c #640A0C",
"e c #4C3A2C",
"r c #842204",
"t c #5C4A34",
"y c #845634",
"u c #DC660C",
"i c #741614",
"p c #942E2C",
"a c #442E1C",
"s c #140E04",
"d c #8C2A2C",
"f c #3C3A3C",
"g c #5C0604",
"h c #64523C",
"j c #242224",
"k c #4C3A24",
"l c #B44604",
"z c #841E1C",
"x c #5C4224",
"c c #745E4C",
"v c #D45E0C",
"b c #741214",
"n c #2C2E2C",
"m c #FC7E1C",
"M c #444644",
"N c #543E2C",
"B c #1C160C",
"V c #7C522C",
"C c #2C220C",
"Z c #A43E3C",
"A c #3C2E14",
"S c #9C3234",
"D c black",
"F c black",
/* pixels */
",,,,,,,,,,,,,,,,,,,,,,,,,,,,,,,,,,,,,,,,,,,,,,,,,,,,,,,,,,,,,,,,,,,,,,,,,,,,,,,,,,,,,,,,,,,,,,,,,,,o,,,,,,,,,,,,,,,,,,,,,,,,,,,,",
",,,,,,,,,,o,oooo,,,,o,,,,,,,,o,,,o,,,,,,,,,,o,,,,,,,,,o,,,,,,,,,,,,,,,,,,,,,,,,,,,,,,,,,,,ooooo,,,,,,,,,,,,,o,,,,,,,,,,,,,,,,,,,",
",,,,,,,,ooooooooo,,,,,,,oooooo,,oooo,,,,,,,,,,,,,,,oooooooooooo,,,,,,o,,,,oooo,,,,,,,,,,oooooooo,,,,,,,o,oooo,ooooo,,,,,,,,o,,,,",
",,,,,,,,,,ooooooo,,,,,,,oooooooooooo,,,,,,,,,,,,,,,ooooooooooooo,o,,,,,oooo,,o,,,,,,,,o,ooooooo,,,,,,,,oooooo,ooooo,,,,,,,,,,,,,",
",,,,,,,o,,,oooooo,,,o,,,ooooooooo;o&,,,,,,,,,,,,,,,,,;ioooooooooo,,,,,,oooo,ooo,,,,,,,ooooooooo,6,,o6,,ooooooooo;oo,,,,,,,,,,,,,",
",,,,,,,ooooooooo,,,,o,,,oo,ooooo;oo,,,ooC66,,,,,,,,,,ooio,oooooooo,,,,o&ooooo,o,,,,,,,Coooooooo,,,,,6Cooooooooo;ooo,,o,,o,,,,,,,",
"ooo,,,oooooooooooo,oo,,,ooq99ooooooC,oooA&6,,,,,,oo,,o9q9,ooooo,,o,,,o9&&oooo,oooo,,o99Aooooooo,C,,9&9,ooooooooooo,,ooooo,,,,,o,",
"o,oCoooC,ooooooooo,,o,,,oo:4&;ooio,,oooq@B9,oooooooooo9@4q;ooooC6oo,,o&4@Awooooowowowo@@oo;oooo9ooo&4@oooooo9,owo,,oooo,,,,,,,,o",
",6o,,,o,Cooooooooo,oo,,ooo@ &owoo,,oo;oq44&,,,,oooooo,944A;oono,,oo,,,944&oooooooooooC4@owooooooooo9 B&ooooooooo,,,ooooo,,,,,,,o",
",,oooooooooooooo,o,,o,,oooA4Aoi,,,,,ooo944&,,,oooooo,,64Bqoo;,,o,,,,,,C44&oo,ooooooooo@@ooooooooo,,&4B&9;;i,oi,,,,,ooooooo,,,ooo",
"ooooooooooooooo,,o,,o,,CC;Aqkgo,,,,owwooqAo,,ooooowoo,,9C;oo;Xo,o,,,,,,&A&o,,oooooooooAooooooooo,,,96&,Bqo;;o,,,,,o;wooooo,,oooo",
"ooooo,oooooooooooo,,,,,C6o,Ag,,,,,oo,wowooo,,,ooooowo,,,,,,;i&oo,,,,,,,o&oooooo,ooooooooooooooooo,,,6,,6&o;o,,,,,oooowoooo,,,oow",
"ooooooooooo,ooo&o,,,,,,C,o,o,,,,,oooooooooo,,oowoowooo,,,,C&qoogo,,,,C,oooooooooooooooooooooonoo,,,,,,,,oo,,,,,ooowowowow,6oooow",
"ooooooo,o&owooooo,,,6o,,,,,,,ooooiXoioo;;;;ooo;iX;;;;o;ooo@B,ooo,,,,@Booowooooonoow,owowoow,oqXoo,,,,,,,,,,,o,oooooooooooo,,owo;",
"ooooooooooooooooo,,,,,,,,,,,oooowqC;;oww;;woooiwA9o;;w;o,o96,,oo,,,,CC,ooooowoo9oiwwooiwwwowX&&o,,o,,,,,,,o,,,owowowowwowo,oooww",
",oooo,oonooo,oooo,,,,,,,,,,oo,,ooooooooowooo,owo99ow;ooow,oo,,oo,,,,,,,ooooo,woooooooooooooooAoo,,6o,,,,,,AC,ooooooo;oo;oo,owo;w",
",owooo6wo&oo,oooo,,oo,,,,,oo,oooooowoownC9:CC&oooowoo99n&,,o,,,,,,6,,,,,Cooooooooon9ooooow,ooooo,,go,,,6oo&6ooowoio;woow;oooo;wo",
"6ooowo6&ooooooooo,6o,,,,,,ooo&C@4@@@j4@4444444@4444@4 444@,,CC,,,,&6o,B444@@@:@:@4444@4:@@:44@@4@B6,,,,o,o,Aoooooooo;ooo;oooowwo",
"owoooooooowoooooo,o,o,,,ooooojj@::n::@4::44@@@@@@@@@@44@@@6o6B,,,,B6o64@@44@::::::@::4@::@:::nn:@:@,,,,oooo&9oowowojo;;;;ooooo;w",
"oowoooooooooow,woo,,,o,,oooo:j:::nnnX:@::@4::@@@:::::@@@:@@o,6oo,,6&,4@@@:@@::::::@::4@:::n:nXn::::6,oo,oooq&oo;;oo9o;ww;ooowo;;",
"oowwowowoo,ow,wooo,oo,o,,woo&j:j::::::@:j@4:j@@@@@@@@@@@@@4,o,,oo,,,&4@:@@@@@@@@@:@:@@@X:::::n:::::@ooo,ooo9&ooo;ooooo;o;oowo;;;",
"owoooooooonoooowowoioo,,oooo4:jj::n:::@::@4:j@4@@@@@@@44444Coo,,,oooB 4@44@@@@@@@@:@@4:X:@:@:::::j:@,o,ooo;q:&oowoi;;ow;iooo;w;;",
"oob;oowoooooowooooo;jCo,wo;,4@:@@@:@@44@:@4:@:@::::n:@@@@@@Cgoo,oooo@@@@@@@::::::@@@@4@n:44@@@j@@:j@C,oowwq::&ooooXiow;i;ooww;;;",
"og;oooowwooooowwwoo;&&oo;o;C4@:n:@@4@:::@@4@@::@:::::::@@@46ooo,,oooCB@@::@:::n::::@@4@nnn:4444:n::@6,oww;C@9&o;e;;t;o;;;oow;;iw",
"goboooooow;owwooowooqoooioo@4@@:::@@:n:@@44@@@::@::::::@@@@Cgwoo,,ooC@@::::::ntn::@::4@n::n::::::j@4Boo;w;o&&9oq;;;iiiw;owo;iw;;",
"gw;woowwo;oooo;;ooo;ooowwio4@:@:n::::n:@:@4@@::::::::j@::@@6w;ooo,oi6@::::@::*hX:::::4@n::n:nn::::@@@o;wwoowA&o;;;;;%ioi;;oo;w;w",
"gwo;ooooiwoow;w;owo;;oooiw,4@:@j:j:::::@j@4@@:@:j:j:::4::@4C;wooo,oo6:::::::XfXXn::j:4@n::::::::j@@@@9w;;og;9oo;;Xqo;%i;;i;iwi;i",
"w;ow;ooo;oo;oow;wooiwow;ww64@:@::jjjj:j@:@4:@:::::::::@@@@46;;owooooCj:::j::nnXnn::j@4@:n:j@:njjj:@@@6w;;owo&9;;;w%i;;i%iw;w;iiz",
"g;wbwo;o;;ooioo;woo;ioo;ww@@@@@:jjjj:j:@:@4:::::n:n:n:@@@@4C;ww;wwow6@::jj:::::::jj::4@n::j:@:jjjj:::@ww;;wb&o;;;;ii;;;i;%zii%z%",
"g;wgoo;www;o;;oo;ooiwo;;;o@@@@:::j:jjjj@j@4:@:::nn:n:j@@@@46;;wooow;C@jj@::::j@j@@:j:4@:::jj@j:::jjj:@o;;ow;&9o;;o99i;;;;ii%i%iw",
"wwooooiw;;w;woo;wwo;io;;;,@:::j:jjj:j:j@:: :::::::j:j:@@@@@C;woooooi6@:j@::j::@:jjj@:4@:nj:j::j:j:jjj@C;;iw;99o;o;;b%i;iiio;;ii%",
";woi;w;;oion;bow;ow;;o;iwC@:j@:@:jj:jj:@j:@:::n:nXnnjj@:@@46;wo;;;o;B@:j@:::nn:::::@@4@::jjjj:j@:jj::@&;;;wwq&;oo;;ii;iiii;i;ii%",
"w;;w;;;iw;wo;;wowwo;;o;;;@:j:::jj:j:jjj@::@:::::::jj@@@::@4C;w;wwww;6@@@@@@@:n:::@@@@4@:::@::::jj:j::@@;;;;;99b;;i;iibbi%%iwi%i%",
";;;owww;;;;;;;wo;oo;;wi;o@:j:j::jj@::j:4::@::nnjj@@@@:@@@@46;;wwo;wi6@:@@@@@@@@@@@@@@4@::::jjjj::j:jj:@o;;;;;9;;iw;ibii%%ibibiii",
"w;boob;;;iww;;i;www;;w;i:@::jjj:::::j@::::@nfXXj:j@@::@@@@4C;;;;o;w;6@:@@@@@:@@@@@::@4@::jj:j:j:jj::@:@n;;io;q9;i;;ibbi%%%iib%%%",
"g;;bo;;;wi,onw;wwb;;iw;;6::j@:j:jj:::::j:n@nnnf:::@:jj@@@@46;;;;oiw;6@::@:::j@@:@::j@4@::j:j@@:::j::::@6;;i;;99;;iw;ii%i%ib%bbbb",
"w;;;;;iwiw;;gbowowow;wiw@:::j:::::::jjj::j@nfnnnjjjj:@@@@:@Ciw;;;;;;6@:j@:jj:j:j:jj::4@:::j:::::::::jj@@;iww;;e;;iiii%i;%iwib;ib",
"w;;;;;w;wi;;w;owooo;iw;o@::jj:j::::::jjj::4:Xnnj@j:jj::@@@@6;;;;;;;i6@:j@j:jjjjjj:jj@4:::j@:j::j::::j:j@o;;9;iXqqwii%woni%bw%bbi",
";;;;wi;i,;iwwb;oobw;i;ij@:::j::@::n:j::j::4j:fj@@:jjjjj@@@4Cwwwwo;;i6@:j@:@::@::jj4@:4::@:::::j@:n:jjj@@:i;q;iiqqibwi;&9iiiiii%i",
";;;;;w;;iw;;o;;;;;;;iwwB@::::::::nj:::nnn:@:nn@@@:j:j@::@@46i;;i;;wi64:j@::j:::j@::::@:::n:::::::::::::@6iw;ibi%i%;bbi&9%iiibii%",
";;;iwiwiw;oi;;i;;;;;i;;@@::n:n:X:::n:n:@n:@:::::@jjj:j@:@@4Cii;wi;ii64@:@@j:jj@:::@@:@:n@:n:::nnn:n::jj@@;iiibb;a;;;i%bii%i%i%wi",
";i;;;iw;iwiw;;;iwoii;io4@::::::n:::::::nn:@:X:jjj:jjj:@:@@4C;i;;;i;i64:j:@:::@::j:@::@:n:n:n:n:n::::j:j:@oibbbbq&ki;iiibi%biii%i",
"w;;;wiwiwi;;iwXCbw;ii;j@@@::::j:::nj:j::n:4:jjj:jj:@@@@:@@@Ci;ii;;;ijjXXXXfffn:jj::::4::::::::j:::::jj@@@&iiiiiA@qibii%bibib%ii%",
";b;iwiiiii;wiw;&;;;iiw@@@@:n::::nj:n:jnj::@jj@:jjjj@@@@::@4Ci;iiiiib6@nnnXX:nM::jjjj:4::::n::nj:n:j::j@@@@ii%bik&;ii%%ib%%ib%%ii",
";;;;iiibibi;w;;;;;;iiw4@@:::j:j@jnj:nj:j:@@:@@j:@:j@:@@:@:@&ziii%iii6nffXfM::XX:j:j::4::::::::j@j:jjj@@@@4;%%iii%i%%ii%i.%i%%%z%",
";ii;;i;ib;;;i;i;;;iibo4@@@:@@:j:::nj:j:jn@@j@@:jjj:@@@@:::@Czz%%%bi%6XnfXXX:@XX:jj@::4j::n::n:jj:nj@@@@4@4Xizbi%iz%i%iii%%iiz%z%",
";ib;wiibii;w;o;;iiiiij:n:44@@:j:njnjnj:j:j@:j:jj@@:::@:@::@&%%zi%iii6:XXXfXXjnfj:::::@:::jj::::n::j@@@@:n::i%%ii%i%%i%b%%ziz%%z%",
";biw;ibbbbiinbq;iw%ib@nnn::::::::nj:jj:j::@jjj:j@@:@:@:::@@Az%z%zib%6jXfXffn@nX:jjjj:4:::n::n:nj::jn::n:::@i%%%ib;bi;iibi%iizbiz",
"wib;ibib;ibbwiw;ibi%w4j::X:Xnj:Xjjnjjj:j:j@::jj::@:@@:@:@:@&%iii%bbi6@::n:::@XXjjj@::@::::j::njnn:@nX:f@::4;izib;;i;aziiii%i%biz",
";biwibbiibbiib%ibbi%o@:n::@j::j@:njj@::j:j@n4@jj::@@@4@:@@@&%ibiii%i&@:::j::nfXj:@@::@::n:@j:jn@jnjnjjnnj::9%%%bqi%;;%%izi%biz%i",
";ibwiwibibibb;ibii%%&::j::j:njj:::njjjnn:j@:@@:jjj::@@@:@@@C%ii%%%ii6:fff1ffnfXjj:jj:@:::jjn:nj:njjnnnnnj::j%%xi;;bikii%z%i%i%zz",
"b;iwbwiibiiiwi;qb%%%@:::::::njj:nj:nj:nj:j@njjjj:j@:@:@:::@9%z%izi%%6nnnn1:fnfXjjj:j:@:::nj:j:njj:jX::n:j:j@;%i%bk#ki%%ib%%%%%z%",
"iii;iib%iiii;i9qw%i%@:::n:::n@nj:nj::njj::@:j:jjj:::@@@:@:@Ci%.zz%%z&@j:j:nnnfXj:jj::@:n::::nj:njn@::nj:jj:@aizii;a;i#bb#i%%izz%",
"iii;;%bbiiiiiibqi%zz@@::n:n:nj:n:Xjnjjnnj:@nXXXXX:j:::::::@A.z.z%z%%6@nffnffjnXjj:j::@::n::njnjXjnjj::Xjjj@4qiziiakiia;iz%%zb%%z",
"%ibbw%biibiibbw;iz.z;4@:nnjnjj:XnjnnnjfjXj@:fMn:nn@:@:xA4@@&.zzz%iz%&jfMMMMMfnfjjj:::@:nX::::jnnnnj:njnjj@4&%%%;i#;ii;iiiz%%i%%%",
"bib;;iiibib%iiqii%d%d;4@n:nnn:nfnnjjjnfj:j@:fMj@:::j:dS5A@@&iiiizi%z&:Mfn11M1fXj:jj::@:nn:njnnnfnnnjnjXj@4&%%%i;;;q;qa;i%%%;iz%z",
"biiibbbbibibiib%i%zd.%b@nj:9Xnffnn9Xj:n:Xj@:f1:j::::pSSSSq@6iibii%%z6:Mf@jnM1fXjj::::@:nn:nn9XXfn9::jnnj4aiii%%i;q#iaAa;izibz%%z",
"ibbiii%bi%iii%ii%%i%.z%;@:jfnnnnnnXnjnXjnj@:f1jjj:jntxxxOq@6iibi%i%z6jMf:f1M1fX:j@@:n@jXn:@XXfnnnXn:@jn@&%%zi%i%;;;i%aa;i%%%iz%%",
"iiiiiibi%iibbi%%bizi%z%%b@@fnnn9Xnnn@:nnjj@jf1XXfn@adppddk@6;;iii%i%&@11MMMM1nfjj:@::@jnnnjnf:n9nnnXjj@q%izibi%iibiiii;9b%%z;bz%",
"b;%bi;%ii;bb%b%ii%zi;;i%%;@nXnXnnnn9::Xj::@:j::n:::j@@j:@:@6iwi%bbiz&jn1Mf1fjnXjjj:::@:::j:nfnXnXnnjj@azbz%;iz%iizi%i%q9i%zb%%z%",
"i;ii%iiiibw%%ii%z%%z9;%i%%w@nfnnn9fX:Xfnnj@n::jjjj:jj:jj:j@6;;iii%%z&jj:jjj:j:j:j::::@jnnnjffXnnnnXj4&%b%;bi%%i%i%zi#;aAabi%%z%z",
"iiz%i%iii%iiii%z%z%%%b;iz%z9nffffffXX:njnn@:@j::n::n::::::@6;iiz%%%%&jnX:::::n::::@@:@:Xjjnffffffffnjazzaw%i;i%iai%%a;q99ai%zz%%",
"b%izi%%ibi;%we;i%z%zi;bibz%onnnnnjj:::XjXj@:::njjjjjjj:jjj@6;%iz%z%z&j:::::jjjjj:::n:@:n::jj:jnnnjnnjq%9abii%ii%;%%iq#a9a;%z.%z%",
"iibz%z%%i%w%;;i;%%%%bwii&%%9jj:j:j::j:Xnnj@::jj@@jjj:jj:j@@6iiz%%%%z6j:j:jj:jj:jj:::n@jn:nj:nnj:njjj&%bC9bi%iz%%%%zi;aa#99;zzi%z",
"zibiz%%%i;%ib%b;i%%%iNeiiz%&@:j::::nj:n&:j@::jj@@:jjj:jj:j4Ci%iz%z%%&@jj::jjjjj:jjjj:j:Xnj:nn:jjj::j@%%aaa;%%z%z#i#ik;qaq9k.%zzz",
"iz%;zzizi;i;ii%%;i%iiNOi%%z&@njj::jjj::j:jjjj::@@:j:jjjjj:@Ci%iz%zbz&@:jj:::j::jj:j::@j:nnj:njjj:jjjj;z;aq;iz%%iaaq#a##aaak%;zdz",
"i%zb;izibeakiii%#ix%ixiii%%a:n:nnXn::nnXnj@::nj@:::::::::j:Cizi%zbzz&jnXnn::X:::::nn:@:nnnXn9X:nXnX:j%iqAa;%izi##a#qaa#;A#qaizzz",
"bz%%bwizi9&;%ibi%bi%%%a%iz%ajn::nnjnj:::Xj4:n@@@j:j::j@:j:@&%%%%ibii6@j::9:j::j::jj:n@jnXjnnnn:njXj:j%i;;;kqbi#aq#aaA&:#.%9;%z%%",
"b%%%i%;;i;9ibibwii;izibiiz%&@j::jjjjjjjjjj@:jj:j:j:jj:jjjj@6z%z%b%i%6@:jjjjjj:jj:jjj:@::jjj::njjjjj@j%z%%%;i%;#aaa###&A2i;k8%ziz",
";i%%i%%bbz%;ibb;%%;ii%iibb%o44@jjjjjjjjj::njjjjjjjj:jjj:@44&%%i%ii%z&4@@j:j:jjjjj:jjjn::jjjnjjjjjj@4&%%z%%iz%iq#kw####k%iiq%%zz%",
"ii%%i%%%bwzz%ii%ii%;;i%ibizbC@@:jj:j:@:jjj:@4@@@@@@@@4@@44@w%i#q#ai%o&644@@4@@@@@@44@:::j:j:n:jjjj&6ai%%zii%%iba;%z%t#;i.%biz%z%",
"bi%i;;i%zbw%.%%%i%i%;;iz;i%i%q@4@@@@44@@@@@4   444 44  4@q%i%aA9:j9zi%i&            4:@j@@@@@@@j@@qq%z%zi%i%izik#%%.#oipz%z%%zz%",
"bi%i;i%i&i%;i.%pz%%i%iib;%%%ii@44@44444@444@:999A9A:AAAAq%%%qAaaaa9%%i%%oAA9AAA&&&A&4@BBBBB@BBBBB6%%bz%izb%%i%%#Vp.%;zzAxz%zzzz%",
"ii%i%bi%&qz%wi%dyz%%i%ibw%%i%ia99a99qqAq9a9a.t%z%iiibii%ii%%#q%;wibqzi%iz%ziz%ib%i%;&g;;;b;;b;b;;;%iii%bi%i%i%iOZ.iiz.iAzzzzzzz%",
"bi%ib;ii%iii%;9kdZzi%bii;iz%z%biz%zzzz%%z%ziz%zz;i.i%##z;A%;A%iibib9%b%z%%;#i%zi%%%i;i%z%%b%%z%z%z%z%bi%iii%;zOizaA%iakqzzi%z%%%",
"bii%bbi%i%i%i%a&%dV%iiib%iiz%%z%zdzzzzzzd.z.%.zzek..ztxizb%;9i%i%;;abb%zizia%zz%zz%%iz%z%z%z%%zz%%z%zi%i%i%bxhdz;;2xz;i%izizz%%i",
"i%iib;ii%izz%%%;;ipOi%iiii%;;bi%igi%i%i%%%%%%z%ik&#%;ai;a;%iaiia9i;qibizbbi;b%9ai%ibbii;;bii%b&b%bi%b%bi%b%zxz#;;kii%i%%zzz%%i%z",
"bi%ibi%iiz%iiz%zi;izzzz%i%ibii%ii%%z%z%zz%z%z%z%%qi%#i%;9;i%9%i9abi9%i%aiizii%q#ii%bii%bii%iibqii%ii%i%iizypzigit%zi;%z%%zz%z%z%",
"bii%izi%ii%i%izi.%bb.%5.iiii%ii%%%zi%ziiz%%zzzVZOeycOi%9@%iiqi#;b;iaib;6;%pypit=pbzi%iiii%i%i%i%ii%ibii%izdzb;%zxz%#;zz%zzzz%z%%",
"i%i%i%%i%%%b6&a;%zz;i%dy.ix%i%i%i%%izz%Oz%z.ddyZyzV+yOz%aiNia#qibqiaii;qkiO=VzOySzzz%%i%ii%ii%ii%ibi%zizVzzb;.z%%;&:A%z%zzdzzz%z",
"biii%ibiizb&4@@;%%%ziwzdzq&q%ii%%i%i%zq6izzii;;;;;%;;;;ii;6qqq%ib;;9;&;i#9&o;;bw;bw;;i%i6ai%bi%i%b%iq&azpi;b%z%%iC44&zzzzzd%zz%%",
"bi%i%i%i%%bB@:@:;%i%.%w%%Oqxzzzzzz%z.dzeOd%i%ii%i;iiiii;zi#q#q#i;bqei;bi;;;ibiw;ib;i;;zzqN%%z%zbzz%zx#Nzb;i.%%i;@@@@:izzzdddzzz%",
"w%i%b;i%%i;4:j:@:;%%%zibi%ii%iii%%iizzi.dzztz.zz.i.z%i%bbzz%NeeNeeeiz%%;;;i%i%i;i%iibbii%i;i%bi%iiz%%exi;%.%%i;@@@:@@;dddz.pzi.%",
";bii%bbi%i;4j:j@@:qi%i%%;owwwgowwbw;bwwo%%dbzz%z;i%tiiii;ww;o9a99&o;gg;;iq%biibiii%bbiwwwgoggggw;gw;gow;%zi%b;:@@:j@@Azd..z.zzd;",
";ibb#;bii%&@jj:j@@n%%%%zdxzz.%%.%.izd.izdzzzezz%%iiaai%biwii;bbb;;;i;bbii;b;i%ibbbi;;i%i%%%z%%%zzz%%zixzi%%bq94@@:j:@:zd.zz*zzd%",
";bbi&&ii%b6@:jj::4@:Aii%%aq%i%%i%%%iiz%%pzdiazzt%izqai;ai%ii%ii%bii%iibibA;iii%bi%i99iiii%ii%iii%%i%%aqz;ib&:@4::jjj@@tp..qqzz%z",
"ibiia9bii;4@j:j:@4j@@j;zib;ibbbi%i%&4kbz.ddOezddzzzkkixq%z.%%z%%%zi%%%k%iq.z%z%i%%iqe%z%ibo4w%baii;;b;biio:@4@@::j:j@@k.dzkqzzd%",
"bbbbqqb%i;44:j:j@4@44:jaiiibbibiiii& &%i%%%zii%i%iiq;;;;i;obbwibb;;i;i;i;;i;bi;;;;bq;;ibi%64&ib;;%%bibi%;@:@4@@:jjj@@4AizzzOzz%i",
";ibia;bbii&4@jj::4@@4::@&%ibb;ibbi%& 9zi%;g;;g&9gg;;;woowo66ogwooowooogg&owo&gooooogoooibi& 9i;iiiibi%%o@@:@@@@:j:j@4&&ai%%z%iii",
"bbwibib;;ii64:jj@4@@@::j4Aiiiibibii;:N%%i&;i%i;awi%%%i%iio&&;ii%bibb;ib%ii%ibi%iiibiibo;ii;@;bibiib%%%o4:j:@@@@:jj:4:Aa9%i%%iii%",
";iiiibi;;i%;4@:j@4@@@:::4@a;%ibbii%ixzii#a9iii;9iizii%ibiwboibbbbbib;ibbbbwiwibwibbbbo9wib%;;ibbbbi%i9:@:j:@@:@:jj@@qiiqi%;ii%bb",
";;bib;;ii;o;6@:j@@@@@nj:@:j:;%ibbiii%%%q9e9;b;bwq;bi;i;;b;;bo;;;;qw;;;n&9qq;9;q;wqwqA9q&agiibbiwii%i9@:@j@j@@:@j:@@:i%i%ibii%;qb",
";;ib;iwig6g;&@@::@@@@n:j@::@jwiiib%i%%ia9qa&&&9&9&&a&999999&&&99&999999&6&a9999&9&9&&9;j:9iibbiii%b6@jn@:jn@@:@:j:@AiiC;iibiib;i",
";i;;;;ib649;w@@:@@:@@:::4:::@:a%i;bbii;:#bqOqN=t#e=teN=hqeh*qe=*9eh*qNht#N=*qNt*#eht#a;:n9;ibwiii;&@j:n@j::@@:4:j@@;%q4&ibii%b;i",
";i;b;;;i64&qo4@:4@:@@::@@::::@4jqi;q;b;9a%iyOiyyx%V=OiVyO%V+t%V=*i5+OiV=x25=Nqtyx#V=x;;&9;bb;bwbo@::n:j@@::@@:@:j@4;io46%bbiiiib",
"g;;ib;;;64&&g4@::@:@@:::@@::@4@@jq;;ii;a;biy5%x=t#x=OixyViOyVbx+V%xy5ee=Oix=V;N=VixyV;;9a;ibo;;&::@jn:@@:::@@:@:4@4;i;4&iibiibb;",
"g;o;;;;;b;Aq;4@:@@@@4:@:j@@@@@::@Cw;;bw9;ib5yO%V=iat=N%5=OiVyOqO=x%V=Oqtyzqtyx#tyzqVyb;9a;;;;%o@:n::jj@@j::@@:@@@@4Xi;;iib;ibbi;",
";booo;;;;;b;w@@@@@:@@@::j@@4@:@@:@q;ib;9obwO=5qe=taO=t9N=Oex=t#ectqx=O#N=tax=t;x=tbxy;;&&abw;;@:j::j:@::j:@4@:@@@@4&i;i;i;;ib;;;",
";;;;iwi1qeq;oj@::4@:@:::j@@@:@@@:@Ab;;b9oi;qhc*#*=Nqt=N9t=Nqt=*#t=N#t=Nqt=N#t=Nqh=OqOb;&a9;;;o@:jj::@@jjj::@@:@::@@Aw;iib;;ii;;;",
";;;wiw;Meqqig@@:@4@@@:::@@@@:@@:j@&ib;;99;99#e#&aNqaaq#9aNqa#NN9qNq&#N9&qqqaaNa&aeqaqaw&:b;;;9@j:jj:@@:j:::@@:@::@@oi;;wi;;ib;;;",
";;oiwooMqw;;o@@:@@:@@:@::@@@::@:j@Abi;;:&b9&o,ooooooo&oooow;ggoog&o&goo&googooooooog&99&&;;X;&@:jj::@@:j:@:4@:44:@@,i;;i;;;ib;;;",
";;;;io;Mqwo;o@@:@@::@:@:4@@@:@@:j@9Aai;&&;&w;;;b;;;;;og;;;ibbbbb;ao;%;;obw;;;ow;;;;;b&;9&;;;9o@:jjj:@@@:jj:4@:@@:@@A;;;;;;;ib;;;",
"w;;wXooMeeeio@:@@@:@@:@:::@4::@:j:9&6iw9q9o;b;ooo;o;;wwbwbb;;wiba9obwbwbwb;;;obwbwbwb&9&awi&9&@j:j::@@@:j@:4@:@4@:@oi;;;;;;;;;;;",
"g;;o;owbwq;;o4@@@::@@:@::@@@::@@:j&koibw;&&w;;;&oo;oo;;;;;ib;bboq;bw;;w;;;o;;bwwb;;;;&o;o;;&9o:jjj::@@:j:@j4@@:@@@@o;o;;;io;;iw;",
"o;;;;;;o;o&;o44@@::@@:@:::@@:n:::j&;;;iwoqooiw;oooooooo;ow;;o;;;;;;;;o&wowowwwwwwww;oobw;ioq;&@::j::@@:jj:j44@:@444,Aq;;;;;iw;i;",
"g;oiooiooo&9oo,4@::@@:@:@::@@::::@@A;o;bo;;oooooCo&o,9oonoooooooo,oo9o6,o,ooooooooooooowbwg;94@:nn:@@@:j:j:@@@@:4@Ci&&;;iwiw;w;;",
"oww;;;;;ooC&ioo4@:@@@:@:::@:@@:::@@:;w;%;bwbooio&ooo;;;ogo;;oo;;ww;;oo&o;o;;w;;o;;;ow;w;%;ob:@4@:nj@@:j::jj@@:::4Aoo&&;w;wwiwiw;",
"o;w;ooowoo99o;;4@::@@n:::::::@@:@@:@&;;;ib;n;bwb;boi;on&wwi;ob;;iwiwi;o;qo;iw;;i;;;qn;biw;;&@@@@@:@@:jjj::n@@:@@BoooAo;;;;X9;;i;",
"o;w;n6oowoboooo94::@@::::::j:@@@@:j@:;;;;iw99q;99qqw;qj&aqqq9qf9qqnqq9qX9&nq9Xq9qqX9nqwoo;;:@:@@@@@:j::::::@@::@C;on&;;;iw6&;;,;",
",o;;q&o9ooo;;owo4@::@@:::::::j@@:j:j@o;w6oo:j&&&&C6&&&@@&C99C:&9&9@@C:C9&:j&9&&6&&&j:ao6q;6@::::@@@::::::j:@@:4@o;o&;wiw;;9Abo9w",
"&owo;o&ooo:wo;w;j4@:@@4:::::n::::::::&;;C9&C&&9&9&&9&9&&9&&&66&&&&6&&66&6&&&&&&9&&9&&a&69;6@:::::::n::::j4@@::@Ci;w;;o;;;oo;;:&o",
"ogbo;;o&:9oonwwwA4@::@@::jj@::::::j:@Bi;oa&&gw;wo;;w;woww;;;ogbo;;o&&&og9o;bog;g;w;;g&:a9;C4:::::::::jjj@4@:@@@o;wo;wobwo;;;oooo",
"owobo;ooowooo;wow64@4@@4@4@@:::jjj:@46;;w&9w;gw;;oo;;wggg;;;gww;ooooo;oooowgogwgw;gw;&j9g;o4@:j:j:j:@@44@@@@@4Cww;;o;oowwo;iowww",
"gooooioowooooi;o;o4444444  4@@@@@@@46oo;o&ogwgggw;w;wgw;gww;wooooogooooooogoggwoogggoo&9w;w64@@@@@@44   444444ow;;;;o;wwwo;wowww",
"owowooo&oooooobow;C@@BBCB@@BBB444444o;o;&&gg;;;;;b;i;;;;;;i;goi;;owo;b;o;b;;;;;;;;wwow&&o;;o44444444B@B@@@@@@C;o;qwwww;gwobowwgo",
"oooooooooooo;o&;owoAowoo;ooooo96,C,o;;wo9owwb;;;o;;;;;i;;i;;;;;;;oo9;oo;;;;;;;b&g;;qwgg9&o;go66666oo9oAAoAooCoow;Ao;;wwwwwowobo&",
"oooowooowooo;o@9;;;;;;;i;;;;;;;;;i;;;wqC&ooo9e=*nt=*qt=eqt=ee*=1A*=eqtheXO=*nO=eqt*a;g;oj&;;;;;;;;i;;;;;;;;;i;;;;@Aoowggowowwwo;",
"ooooooo9:&9&o&&&999A9AA9AA9oqqAooA;qAo&&9gwi&9Oe;%Oto%xOo%tOoXOz;idq9#Oq;kt2&kzko%qqqggg&:&oiAoA9AA9A999qnA9qA9qC:&&&&&9&&9oooow",
"66,C,,n@@@@:@CC@@:@C@6@C:CCC666C6&C666:&gwitqowoor;gwgoowggooooZ-;og,oogggooo;roggooq;oo&9j666&@&C666C6C6C&jC6:6CC@@j::@@:@&,o,o",
"o9o,oo;C@&9&999&&a9&A&&&9&&&&&&&Aa&&&&9ogoeiggowo<igogogowo;ooZ>0-oo6ooogwooo;rowoowAkwoAoooo9o&&&999&9&9&&&&&a9&A&&A9&&&99ogbog",
"ooo&oow&ooooogoooooooooooooooooogog&&oooobqowowo,r;ooowwowwgoZm>>0voowoowwooobrooooogq;oowoowog,6oooggggggggoowgooggwgggggggwoow",
"ogoooooooggoooogooggwowooooowooooog,,oog;*ooooow;3roowowogowodZZZlZowowooowoorloooooooq;oooooooo&ooooogoggogoogoogowogooowogowog",
",ooooooq&oooggoooo;oggowggooowgoww;&9ogweeoob;;o;3roi;;oowooo$uvvuuwoooow;;wo<looo;;oo99bowoowoo&oogooowoggggggoiowowoowobowoowo",
"ooooooXa&oooi;ob;;;;;io;;;;obwoi;;;oo;;q:Coo;ob;o;;o;;;;oowgoooowoog&6oo;;;;;oio;ooiwo9@;;ob;;woob;;;oo;bwow;oi;;;w;;bo;qwoowogg",
"ooooooq@&;%;o;%;o;%;o;;;o;;;o;;;o;%;o;tN&&ow6@6o;oobjB6oooooooooooooooooo@@jggooo@@:oo:&qeibo;i;o;i;o;%;o;;;o;%wo;%;o;%q69gowowo",
"oooooo*XeN==X*==X*==X*==qM==qMchq*=hq*ciaq;o444&;;;w4449b;;b;;;;;;;b;i;io44@&;;oo4@4A;oq;*=hq*==X*==fN==X*==X*=he*==XN=t:qwooowo",
"ooooooqqa;ki;;;i;;ii;o;%;;iq;;;i;;%ib;;g;;oo4@@9;;;o@@@&oowoowoowoowooo;&4@@&;oo9@:@&gggg;qib;ii;;iq;;;e;;;i;;;q;wi;;;iqqgooooow",
"ooooooooooooooooooooooooooooooooooooooooowoo@@@CooooB@@&ooooooooooooooowo@:@6ooo,@::ooooooooooooooooooooooooooooooooooooogoooooo"
};
