/* XPM */
static char *_d6bc46013c54677ddb73a5afd21ff1boNnt7IutJlQiJq6A[] = {
/* columns rows colors chars-per-pixel */
"128 128 64 1 ",
"  c #040204",
". c #343E24",
"X c #64523C",
"o c #2C220C",
"O c #444E34",
"+ c #4C3A24",
"@ c #3C2A1C",
"# c #1C160C",
"$ c #646264",
"% c #2C2E2C",
"& c #4C4A4C",
"* c #140E04",
"= c #3C462C",
"- c #342214",
"; c #54563C",
": c #44321C",
"> c #7C624C",
", c #544234",
"< c #0C0A0C",
"1 c #745E4C",
"2 c #242224",
"3 c #543E2C",
"4 c #442E1C",
"5 c #2C1A0C",
"6 c #6C6A6C",
"7 c #5C462C",
"8 c #444244",
"9 c #545654",
"0 c #040604",
"q c #3C3A3C",
"w c #6C5644",
"e c #4C4E4C",
"r c #4C3A2C",
"t c #3C2E14",
"y c #1C1A1C",
"u c #343634",
"i c #141214",
"p c #342A14",
"a c #443224",
"s c #846A54",
"d c #242624",
"f c #6C6E6C",
"g c #5C4A34",
"h c #444644",
"j c #5C5A5C",
"k c black",
"l c black",
"z c black",
"x c black",
"c c black",
"v c black",
"b c black",
"n c black",
"m c black",
"M c black",
"N c black",
"B c black",
"V c black",
"C c black",
"Z c black",
"A c black",
"S c black",
"D c black",
"F c black",
/* pixels */
"a4@@4#-3g3a-o#**2o##yi##yy-o##55-4@oo#iiii<i2##ii<##5-4-a4@oo@-o5oo-o#*#55##oo##i-#<iu%*y%##a.a3#**op#--39e&O&h@oq2#*##54aa33aa4",
"-@a4-y-r7r34o5<<#%y#yi5i#5@d--5--4--5#i<<iiioy@yiy##-o-4@-%5244-5-o--*#@-5-555*ido#*2+o*o5*5uq3u##*oo-5-a&eejj8odq#5#554=q3,33a@",
"+3r@55-@3@@-yi<<iyyiii###io-*4#o4@4-###*<<ii-#oyy#*5@5o@-%d#od-o5o--#*#545#45#*5-5#*o2#5y##ohh&4**#4-##a33r&jjaaqt*58#5o@Oe;ra3r",
"r,3a-54@@--oi<*iyy#iii#5ii#-*o55o-5i*5##*<iiy#yyii5-2#-uo%y*%%4y#--5*##5#5---####*##o###i##-88885#5-##4&883rje&qtp#-j%orq+ee33r3",
"aa:4o@@44-oo#i#iyy#*<i##y#o-o#-5o-#id#i#*<<<iidt#i##d#4%-%#d%-%o#5u,qy*5*#44-55o*##-@##*#%54ut%45--##-;&+3,;e+eaa35#jjo4aa&e&r33",
"aaa45-4@@oo5*<iii2##o0##o-o:a5#o@-##2yi##<<#<yooi*o#5%%o%qy-4-o#5@@u$$q***--o#5+#*#-4-##y:-a3%%a#5o**33O87e9:pe4@q-*q$o-3,:3,3rr",
"3:a-5-4--#5i*ii#yy##di<#55#-32#5---##i**<i<*<yd#i*o#d%%y22*2yoo-o@-#%8-**#-o5#--#*-@-4:#4:aa4ooo*45*#O3&&Oje@4&q8--5*#5a333r3+7r",
"a+3-54:4-#do##iyyo#ydi<#-#5-4o#@---5yy<<ii<*iyi###odddd#5#5y5y###45****55@-o#5@55#-:-4o#:gw7@-4*#4##@O;jeOe84qao=p***#-3;3,3r3r3",
"4@4--:4@%y###y<iddi#dy<#5#@---o4---#ydii#iii#ii2**ydy%2#o######i#o##55**54@o5-4*oo---o##@X;g735*5-o#q9&7e&3ar8qh-5###*-333,7,r3+",
"455#474-y2#%-#iddyy#y##-55544:-4to##0*iii<ii##yy*yy##2yi#iiyyy#5@y###-5#-3:5-t-###5555-#53gr4a44o#-#48O3&h3-4:@&@#o#*#-73,7,3r,3",
"---#-a4--##%5#oyyiiii##5-44@@4@-@-*ii<<<<i<#*####*dy#y##ii<io##odo*##5#-@+a5545#-4-----t@:a45o-------:3&3r4-@-a:o#5##-:3,,3333rr",
"-445+ra45#22#oo--##oo-@t--4@@-##d5q6f%0<#i<<i#p#<iq##ydy*i*yd*#yo##o#55-:a:5-:55o+4-4-:4@44---4--434o43,3a-4:@4a#5#5-:37,7,r3,3+",
"+4-54+3334-5#-4:to5-4@t@55-4@4o--#d8u<0<<*<<iy#d<<#<<iyy*i##y**y##5-##-o4a--44-@-:4-4-:4o@:44-a---4@@-+34-54-#--#*--4333rr3r33r3",
"+444@@:3344-54@:4554-44-554@44@4-##*<<*<<#<i*diyii#*#i#y*ydy<0####o-5##-4:--4@4--:--54:@--o@444544@433r3+--:#*####5-43r3r3a3r3r3",
"aa@4@-@44@4-544@455-54@-#-+::-4@p-#*##*ii#*<ididd<*<#*<diyyOjd0#o5--##544--44-4-4:5-#--4-o5-4445@@4a3&aa4-4&&%5*##5-:+aaaaa3+3aa",
"44@4@@-:4--5-4@45#---o-45-+44-o@42*###iy###<iyiyi<#**#idiy<i9$i<#odo*#5-45#4:--54+5-oq25-@44a:-5---447aa45-3j68*555-4444aa3+r3ra",
"aa4@4-4@@5454@---55--4::-444ooo-%#*2o#*y#i***iid#*<**i#ii<i<yy<*5d$e%*@@-5#-:4o-3@-5u$8#o@:a4@55@--4--a3-5-##84#---@-44444+3aaa4",
"-a3:4--445-5---o-5--o-4--4@-o*#ooyo-ooiyi##*##yo*<<<iiii<iii<00#o*uff%5--5--:4-4+4-5##o#4:3a4@5#-@,&q*o4--@5##**5-55-4@:4@a3a4-5",
"-4344o-4-5-5--54o5#oo##yo-44o##5#yyyyyyiiiy*<##o*<<<<##<<iii<<#dd#oq&455#5--4@4@345@----437@@4554-5j6%*#5-5--@5-5-55-44:4-@:4-5-",
"5@:4%-4445#-----o55do###--p-o#*oyii###y#iiy<##op*<<<i##y#yiiiii%do--##55----4@@+345-+4444ra4@--@445o8u*5@-55@@---5@@-@4@-@@44-5-",
"54@@44aa45-@-44--o2-oo#o4--4@-odoioyi2yiiiy<*#odii<iiii#<iiii<yd#dq@-#-5---:-@:+44-@3@444:-4@---3+-5-*55@-543@-44-44+4:44:4-@-5-",
"4:4oaaa:--:@----oot%oo-o---4@-@-oiyyiy#i#iii*#y#i<#**#<<<#iii<iyydu--#5#5--4-3:44443+4:aa4-4o-p-34-4g--5@#*44+4@@4@34:a:7a44a44-",
"@rr--3aa4o::4-ood2@-do-44---:4@-@y*i###i######2#y<<*#*<<<yii<<<<i#%d@4-55-454333344+a4a44--45-44@:443--5o##44--4@44+@4a33a3ra::4",
"aa-@ood4o5a33+@22dooo#op-444oo4-@-5<i2###y##o#y#2#<#yOe.*#**<i=d0#ud+@:5-4--3:334@-4@-:4@-4@#::4@44a4a:#y*5:@5444443+44r34aaqaa3",
"4a-##*-o##dq%4%u2##5#5##o--4##4@4@diyyi##%##y%-#***<*%$fd0<*i<$$i*%adga--:--3:7a4o#da4@a--4-5-4--54a43a-t-4-5@++@@4+3aa3r4aa3:4a",
"o@##oyo-o#oo22%a%o##o-###---#i2d4@#-y###y:d<d+-o#*#**<dqi0<#*0d=dido%3a4@3+4:a3----4a3a:4--#@#####--33-o@-445@34447rr+43r@4a3a#-",
"o-y24-@#-@ooo#dd4od@tao##-44oi#y###o##*##tt#dt455*5#*i<0<*<##*0<<iod7,4-3334443@4-44ra4a45@-a9ao*---33--o-4@-@4-44r44r+r44@a34-:",
"@y#4:@oo4-ooo5o-2do-%@4o#ooo-###up*#*5#-#od#t7ga5*###***#<*<*ii<<#t4a,--+,3:4-@545@@aa4a:4--4qejo5@-g35--o@o-+@@@4--4@4r@43raa@-",
"4o-aaa-do--@-#oo4y#oyo@#5-o@ooo5%$u0**#o5yoyorg3a@#5*#5#i<*i<iiiida43gooaaa4-o-#4@a3:4434:4-4-du#-@4:a@-y5-5-@@@4@@@@4444aaa33@4",
"d4@4a44-o4-o--oy5iyp#5@##-t3++-#*5##*####-d#y43a--i*<<0id2ii<iii<-@#aa55-@oo#**#--:aa444---4:45##-3@----o*o-54-44,-4-4raa+4+r+r:",
"@aa4o-:-o4@oooooy#yddtapo4-3:a4o#####5#5#o-yy-a4*#*<<<y<idd#iii<<#-5@4-o@-88%* #-#44+444#5544--5#5@4@oo-o#o-o--5-eo5-+r43ra@4aa4",
"+4@:ooa-opd-*5dooiyd--+do-p@-#4o#-55##5#oodoota-#5<i<yd<<<yi#dd<<#-#@a-5-oq6fj* *#4@4a4-#5-4@4@5---:-##-y#4#-p--5j35a4r@43a4r4+@",
"aa44a44#oo##y*#o-#iyoo-4-oooy##-o-o##*#*-t4-d+4o##ii<yyyi####yo<<#p--4o5#o*djj***5544a45554-@@-@-4-+@-5-o#-o#o4-5eq5+44-@4r44r4a",
"a4@@aaa-5#i%j**oo-yyy-4@4-o5uh*--4-###*5oa+@@@--#5i<<iy,yi#oo###*#o#--o##-**#*<*##5---@##5----------4-#-o#@ooo-45#--44r444a3rr3a",
"34-----4o#*&f*#55o#yyd@@@-o#j$5o---##-5#-ua442p5##<<iy#i#d<##2**##o5-p5###i#5*<*##---@o*#---@--4554@@-#oo#2###o455-4a+ua-4a4rr4a",
"ra44:4-ooo#dq#5###ooyy-4-5#i8q*o4o###55oo4a@2-4o5o*ii<<iyo###i#**oo#o:o##yyo5#<###54@--*#-54--5##-44-25-##-5*#4@---@4434@4rr43a3",
"aaaa33-o#-5*#-5#*##5o2-ooo5#i**54-##555-4-4d2o@o##*yy=hy<#y#<i##5#pooty*io#@@o**##-4@#5i#-4@-45#-+3:44o----*#54@:4-4@+aa-a3r4a3r",
"+a3a%a-o55--5@#*i#y-@@4@-oo##5oo-5---o@@--oo-4@o#5<i<%j=0*#2#i<###pyoto<#yi@:-####o--#**5:::4@55-@4:::-5-4o#5o4@5-4@@%%%rr3r33r3",
"a373-44#ioo---iy2-4@q:u:+-@#5o-oo#o--------24aao##<i<<iii**##y###otoyt-i5#i44#55##-o55**54a3445---:aaa4o#-o*#44@oo44%44a,7r434a3",
"-7$7-4oyy-y-4*i2d4@4:qq88a4ooo-td55oto55---4@4@o##iii<<0*####2#**5ooyooi#o#--#55-oo5#*<<*#aa::434d43a+-#5--#5:a4@@-44@@4r3raaaa4",
"#4&&@@-2yyydyiydd4:@dq88r44@t4-ad#o---@5--t4--4-5#iiii*0*5#-o##5**#y#oyi###-d-i*#oo-*<****@@+@@+344+44o##-o*5:3a4:44a-44araar&,d",
"o-rq-4-oooyyi<iy2--%%4uqu@4-@4@a@-oo@4@----poooo###iii***#o--d%y*yy#p##5#5i@o#5ioy-o****<*--@-53333%444#*--#-44%4ra444433333w,&o",
"-poy2-#*-o#iiiioyiiy@@@:q%4-a4a4--5#5---oo-##55*##yiii<i*#-ooqqy<<ii#oo5####i***#5###**#5*-4---43333a4-*#@#*#o444aooaaaaaa3gw93-",
"iyyoo5ii##iiii##*#*#o4:4aaaaa4--4-5-#5#5#########oi<iii##o--o.q#<iio###5-##*#**#*##5####-5#yo-@@a-4a4-o##55#5--o4a4-4-4443rrwj&d",
"y#*52yyi#######**i5dd4a3a3g3a4---5@5#5##4-oo-#5###yi#oop---o#5o##iod#i<ioo5#5##**5y##i#-*2yid4-----5###-#5-*55o@@a45--4@4a3,3a2y",
"ooy--ddo##5#p##yoddtaa333ag3337@4@-5-##o4++--#5##i#*2op@@-5o@d4#i###2ii*oo5555#5#*y##i-oyy2y%yd--@#55-*#-i-#5@@44o#5-4@@-4r3332y",
"o##d#dd4ooodtoyptt3&3r3g3ag3a,ga4@----ooaa4@t5-@##i*ot-4t-o:4:@d#%o##y<<#dt-4-#5y*iyyio-@2ydyii#24#a4@5<#i#5o-to5#*#--%4@4333a-2",
"dd5#od-doddt@-oo@aa3&r7g4373a73344@@----44---54@5###ooo--oo:4@4-o-d##iiio---toi#o#iiio#oo#iiii<iyii%a+#*ii*yooo5#i##d4%%4a3ra44y",
"#d-o#ooddoood-y#o%@aa3,7-r,3,33raa@---4-4@----4-55*#o-o-4--aa4-ooddi#ii#oo#ii##*#i*#ii####<0<*<<<<*#-+##iiii#o#ii*iiyu4@a3r3a@u#",
"*oto#yyoiioy#4#5o%qqqr3raa,3w,7r-a4-----4t5-@--5#yo#pooa:-444-y#o-y*#i#####<*****###*#####*#<***#*5##-#i<ii###*<#*iyda4437aa%d-#",
"#*#yo#y#iydoo4##-@ra3r-a7gg,www,-4---4-5-:5@55-##y5oo-oo-o-4--5#55#o#-d#5***##**<*##5o#o55#*#-##**<******#**#****#5#o-4@a3a422#i",
"###5#5d5iyd-@@o#-@4@-4-q33www3,73@#-4@oo---5#55#5y##y-5##5----5##o5yy:%yi**#***<<*o-@t5@oo#--5#*#*********<<**#*#555oo@4aa4%4d2i",
"o5#*i#ooiiyoo-o#o55#o4@aaawX333r43#o22d44--#-2o#yyooo-o##------55-###duii<<oi#i<<*oo@+o5oo-5-##5-5**i#i*#**#***#55--@@443aaaqd2o",
"o##y*5oooy#oo-@ooo5#54:33333ar,aa352#iyyoy###y####-dt-oo5@----o--@55oii**<<d#ii<<#*#o4o@--4-4555-o##y-*##-o****#5#o@@@@aa4a73%4o",
"o#5d#*##o##p----@-o-#44aa3ra3aa4da-o#ii#iyypdiiiyydp4too---@-44--55#iyy<iiii#2y<<*#5#o5-4@4-:4-@-4o5o@###-o#**i5oooo---4aaaaqdo#",
"aoo2o-##y####o@--5555-3aa3aa44a42-oo#5iiiy##*#iiyot4--o5-44---4----*iydiii<<yod<*5***#5o-:4-44---:-5-o###5**#i#o4@@5--44@aaa2##5",
"-oo#oo#5#o5##oo----4-%:3737arra7ra-%@y*<<*<00<i#ddudooo---4-4-5--5-yiiyiiii#yoo<*i0<0##o44@---55-44-5-#*#55**i-@---o---4-4a42y-@",
"-@5##*####5-5-@44--44:a3,3ra333gw3-@o*##<yhy0*#2d%@ood-5------#-4-4uyiiiiii*####*#****#5-4@--5---o-5--######**-444---@o@4@4@#5@-",
"4-#*#**#o@--o@+:44oo@-a3a3ar43gg,3a4o###<%q%*#**d2%-@44--44-4-5-44-dyiyiii<<#*#o#*****5#5-44-5-oo-oo--**5<*##5--@%%oo4@4@@@5#o@-",
"a-###**5-4:4ot73::@@44773,3r-a44a3ro-5--##*#*##ii#@-4aa--:4-@4544--5iyiiii<dd****<#**####-@-#*#o#po#%-****####5-4qqd#4@@:4-5#-44",
"a4-#*##5o@--@q&aa4@3@4w33aa34--a444oa4545#454-#y5#45-:4-434-4@-@:--42ddi<dO$$%<##***####**##5*55#oio#o5#5##-#--4@@%%-4@aa-###-4a",
"a4#***5##44@d3,3@4@:4+,3a34a44-a4@@r4a4:#*4@-o#**i@54a4-433:44@4+-54-#iiiyd.%i#**#*##**5#*#*<*o#oo##5#*5a@5-5554+a44-4@4####-@@:",
"a-***###5---o@,,:44a4rw@4ao-55-4@a4ra4-4#*544#*##5:-43:-4r+aa4--4-5-#oyii<<i*5####5o#58$j#*#**5###**o5#-4@5@---4:734344@5##5oo-4",
"@o#5555#---44:&3a3aa-w>aao#-5---4aaa345##5-4@-5#*#:4+ga--aa44-554-#-oydi<<i#dyi<oy%oo%8%#**5***##5#55555#*y-55-44r3a,a4-*i#5@oo-",
"@4##4o-55----73g7a3a-w>-oo#o5-5--d%37@-#-5-:4:-5*-34gw3-54aa---5-o#-yi#i<y<iydiydyu2#** <*#*<***#5*#5##*#ii##55543ra4-4#**5555-4",
"3a:a4o-------4aa33a443X##555-o@4oo-%g5#5-5@+:4--55@4++45-55#5555-5#-**iiii<idoyiyi#do#*<***<<**###5o-5#*i#*#5#5@@+4-54-***#55-4:",
"aaaa55--5-554@4a333@@o-o#oo-----4@4-%554--4+a4------:34-5#*o8-55--#5#iiii<<<#d#<<##oy5*#*#*<<<*#yo#5-4#<<y###5-4434o---###5o-@@4",
"@4:4-oo55#5--@-@a3a4@oiiioo555-@4@4--55o5-:7@@44---@4+4-55yjjy##-5-5i##i#<ii###dy*<*5##5*<**#**#-o#--:a*i#<*@-44++@44--##5##--4@",
"+aa4oooo###---5-:3aa-yoi*5***5#@4@@-55#5#5%3444@-#--4a4-5*2q#**-#5#**#i#<i#####h$jq<*#y%&q***<*5-odo4-4##i<*#-444+@@-5-##55#-4@:",
"3a-2-4---#*5---4:3-a4i#5dd%%#*5o@4-o#5@4oo44a3@@4-#543455-##***-45****#*iii#o-o*%$e**#%&$8<<<<<#o#oo---ii<i##-444@4a--555555-4@:",
"@a-#o@--#5#oo-4@:45--#55%&$f&*#o-@45#5#-:4@%3r3@--#-@4-##@-#**55:-#*#**####o-4:-*#*#<<#*<  0<o*<y5#oyy#iyi<y5#@@@+44@-5------4@4",
"a455---d55#55-4@4@4---#5o5@o#*5o@4-##5#:a-4a3rr#4##*#4##44-o5###@@*5u-*-------@5#<**<iii*<<0<o#<i##*5#iii<*##-5-@44-55555---t4::",
"a44doo4-#55--o4@-@@:-@--5#5555-t@+-##-o-@-4@r4455-i*#--54o:-55*#54a6j5#-4+----o#*<<<iiii##i<i#ii<#5##oy*#*5o##5-4:@@X3--5-4@@%4a",
"4@:a%d-o#----5-----4:4-45---@----44-#oo--44a34535#i*i-----4#555&@-a7o555-445-+o#5*<ii**i5#y<*5i*#*#o##o5#**####5o-&$$g454-4-4@%4",
"-4@a4poo-45-----#o@3@3@45#-5---44-@oo@---:3a34@3o5<*i5-ooo---55e-55-55-@@4-5-@4###<i*#iii#2<*##**#5#ii#**#*5ii#i#odyi*55--45-d--",
"oo4ha4o--555-5-@##4,77:45o--445-@4@o555-o4+4g3ra55*<*--55*---55554--#5#-4-#*#--o#*ii*<<iiy#<*###oo#ii*#*#***<<iioy#*<<**#---ood-",
"ydaaa4oo55#*#5-4#*4+a3r:-:+4@@--44:--5---3a47g3--5i<*#4-5#@-445--:43#*#-###*#-2o#ii<ii*<iyii###i*#ii*0 **#550<<i#iiiiii#---4-@dy",
"#ua44@----55##---###54,34:333444:a3:555-5:a47X,3-5<ii#p5#*---4-5-44+4#5o####y-*y5ii<##<iiyiiiyo#io#i*dq5*#**ii<<iiiiii5oyo---%4y",
"#oa4---445#--554o#%je#-3r3&3:::3a4a45---@@@4gw,4-5<<5#o5*##5-4-----43i-34*##-@*oyii<i#<i#ii##i#iiooyef9<0#*<<y<<iiiiiioo5o4--d%d",
"#oa---4::4#-4-55--8&d*-3&3,a4aa3aa4:-------ggw34#5<<#--o#*#5#:-45-4:4i-Xw5#-+-4:yii<i#<i#ii#i<##ii#eeui<***<<<<<iii#iyooo@4--5dd",
"#ya44@4--45-45554o-##--3g3g7r337a3a+@-5oo#-37g,4##*<#@--##*5-+@55-3--##3:343773+-*####*<i##iii<iiiiyii#5##<<<ii<##iiy##yo@--4-oy",
"<%7r++--o-5--5554:---43&3ew37w>,77344--#5*:3rw1-*#i##-o-o55--o+4--354##:455--aa4-##-#*<<##i*ii<ii<iyyy###**<i<iii#i#o###yoo@2t4y",
"dg7--3q:-5-----547::33:w73wgrws73Xa7a-####-:ara#*#<###@too#@-*a+-555#--4@#*#54@54:-@5##iii#<i*<ii<iiyd#i#5<<iiiiiii####pooo--4:@",
"+,g-37332#y--#**%97a3>j73,,wa3w3,w74345--#4a--#*<i<##5-@o#i--2o@5-5*#4---5<#**5-:3w+4###yi***#<<ii#iyoy#***<#iiyii##o#pooo-@--d4",
"@7s3r@34y5y2p2*5*%g37Xwf,gwg4,ga3X3@4-5+-#-4@dy<<<**#---##io#555-55*--5--*<****@43,3,5-#yi##***ii##iyyy##*<<i<iiiii##ooo-o-o---4",
"4-@-a4a4o2y%%i<iy#%3X1r73,wr@gg33,3,43o-**54,7-***#5#-oooy#-##-4-5#54--55#**55**-4744oo##ii<**<*##i<iyoy##*<iiiiyii##p--4-ooo4--",
"-4#<#44aaayy#<<<22#8ejggrgg3@,,gg,gaa35####43ao*<*i#5#oyooy5##-4-5#--4-**#5*#-##*54@5#o@o#i**#i***##<yod2#**<<iiiiyoo---o-@--o-#",
"#4@#*#4e3%%yyyii#d-ae&ege3a33g7wwww443##*i#4+a4#<<i#*#-dooo-o5-5#5-4--5a8#***#5#**iia4#ooo###*####*i<#oooo*#<iii##d#oopoooo-@4-#",
"#4ay*yq&@%uo<**#*2qa&7w334@&gwwXwww34-i*qyio-4@i<#**##4t4t-5##-:55-4-4,fe##5*#5*5ii<#-55ooooo**y5<iii#odo##0<iiiioo#pooopoo-o@--",
"o@a2##%a4-ooi*#**oa&&4@@a@r83g>Xg33,3-*-qii#4ad*<****#do@-@5-*#4@+-55r&u#*5-##*#*##i<****#o-:@o#o****#odpo**i<iiyyp#oopooo--o-@o",
"-4aayy44---@o#<<<#y7@55#a3r,,wX,rgga3-55%i<y:a-#<*****4d4oo5o###5@555-@#55-a-o#i*###<< 00*ooo-554-####pooo**<i<ii#do#o-oo-p-@---",
"444apu4@4a-#d4##<<i#<5-54r333w,33,,aa-#4#2<o4,-***<<**24a--5#--o#5-55-4---4a+-o**2##<iuq<0p5#5554:@*#*#o#doi<iiiiiiyooddt-p-----",
"@r&:a4raaa%---5***<*0#5-@3,a3g,g3rajja-5-:#ya3-#**i<<i2d4##*###5-----5544-aa:oo2###*%&eq<0i###55#-o5####5-dyiiiiiiiyy#p--o@444--",
"4@+3aa3a%qq+o#y##*<***-@+893g,g3r,373a445##%u2o5*<<<<<#-o##%*#5--4@435#---a33-oq*#-#yy*<<*5yo##-*####5##o-#**i<<iiiiyyy%tp@@@t44",
"@4pa34aqa&eq4do5*<<###4r3$X,,7,ar3r3345a4*524dii<<*#*<i2*5&$5#---:34@-#4@4:3r-4r##-y<i5i<i##5y5555#5**#5--oiiiiiiiy#yoota4p@-@@4",
"a@4@q88a8e&%y2yo##*#*5#8@3w3ag3arrrra4-7@**#aayi<i#5ii#o#u6e5#-@4:7-5--44444a4@a5##yyiyyii##yi5#5##y#***ooo##iiiiidoo#tto-t:4-4-",
"4-@o2u8q&4u4o##o-#i2#-#ooqgg3r7r33r4a--4o##-g7y<<##i*<#-oo2#55-:+7g+@--44:44ra5-#*#y-iiyiiy#yii###*5###--oo#<iiiii####ptpt44@44:",
"a48aa+uaq:%-2yyd-*<*yd%-#3jw,3rr3r333---5#*4aay<i#5****oo##--#:::++45-5@4:@-aa-oo*##diiyiiy###iy*5#*##*#-5@oiiiiii###idtp-p@4@3O",
"r@:8a33q+add-5o@#**#d52+oo9,3a,&8g7,3r-4-##-4-oi<*o##**o4o-o:-33:+@@--5-4:+-44o#4y*#-yiyyiiyp##y#*#5#5##5-tp#iiyii##i<#@p4--443;",
"O8&&+a:a4%%4%o%d45*<#y@o--4r3&g&3,,,g4544##-oodiii#o**##4--4a4@:a@44----@44-@4-5-2*#yyiiyyiyoy#i##**o5#*#---oiii##*#*#*o@@4o@aOa",
"&:8O3a444qa-4o%o##i<id4#24@-3e73araa7-444#5#ooyii*#o#*#-44-3:4-3a444@--554@@-4a@o%#*#oyiidyidopy#5###o#*5#5-d#<##*i*<i##5o:raa+a",
"33aa3a4@@aq-d-@d#iih%#4o*qr4e,rra3-7,7a,55#55-y<i-o--5*5-o-7r@-4@444@55*5-@-544--2d*#iydiyyiit-#y##5#5##5pot4o####*#qj$9%#op4:43",
"r+pa4a@a4aa-2d%4yi<y#2%oir7a8,ar@-@7rra-#5#--4y<#o@-oo55445-%-44@+a4+-4aq5@-5-@::#o**#5#i<iiiyt:-t-o##5#5-tppo###**#dd.eh*#oaa44",
"a4a:34-:a4424d44y<ii-o4o#3raw3r-2rj@a5--*i#-d-yi*5-#o5554@-o##-#-4444,$6$%--5*54a#yi#i#idyyii#or3tpo5--#5-3utd#**#*5#<0#i*5a4a4a",
"4@4a3a-4@@@-d422#<iyio#y2@j@r3-@%%q@yy5o#*5#-dii<io#5#5542i22o#*--5445uej%545555d#5yiy#iyydi###Oa-45--455-=3puo-5#*oo*<<*#ata3ra",
"a4@-4a---@@4-2@@-#**<d2id@,44a42ua%2o2@o**i#5#i<**#*5--5-d2#oyy55-@@4-##o--45###-#*iiiiiiiiii#*#5oo#5434-@38@@@+:5*oa5*ii5d-4r=a",
"aa:4-44--o-@d#o2o#*ii2y*#-oo44@-q2o2o--5*iii2oi<**5#54-54u#iyi##@@4@4-555@44@#***#2#iiiiiiiii**###o-45::4-@=8:a4@#*5i*iii#o-o44a",
"44@4@44-oo-o--@o5#iiyddo4-oy%@o222doyi<i##iiodi<<##----443d5yiyo5444:--@--43@5**##o2iiiyi#ii<y$$%*o@--:4-5-3334-#*5i*i*i*o@@=rr3",
"@@443@4@-ooo@4@i-diiiydpa5#iyo-dyodoyii<*###y#y<###55--4-5yiyid-o44-4----@434-*<<**yiiiyiiiyyiO$j5#:-544##-::a@a#**#**y*#o4487rr",
"a4raaaa4-o5o@@4o4#iiiyydo#iiiy@a42ddyi<<yii#yoi<**o-5@--4-odyy:to@4-:-4-4--3:#5** **iiiiiyiyd**yy#t=-5--5#-3+444#*###*##5@r.3,7r",
"a33a338:oo-o:o#2@#i<iyyddyiiii2a4@y-yii*<<iyoooi<i5---4--4a###po#o@-34---5-3:*##**#ii#iiypyyt#*ootq+5@--##-:34@@#*##*#5###488&ra",
"4ara34q7@-oo-4o2ii#*idqd%yiii#-+4%4yyii<<<iyyi#*<i@-----5--o#o-5#@--+4-4-543a5#-oyoii#yidd##ud*%hqh3--#5----:3a4-***####o-+88,3a",
"a3r:3aa3@4oo@3@#iii<iy.u5oii##-:+@2d-5i<<<iy#i<<ii5---555--o@#-oo--43344@--++##o-odi<iiiyo#iod*28h&r55*o-#5-:34--##*5#5#--4a,g,3",
"r3&@43rr--o--4-oyi<iiydd%#i##o4aa4@qy#**<<iy2i<<<io-5555#-4#-ooo#--437+@-5-+45*2-y#i<yi<i#####*it8h35##y-#5#-4@4-##55##5--:a7e3r",
"a&&+@a3a-@oo-5ooyii#o2iioy*##o4:3aaqo#*<i<i##i#<iio--55*#54o-oo5#5@-3+4-@55@@##y-dyi<yi<##y#%o*#-ta-#**oa-#o:aa4-5#-#555-44qe7eg",
"3ra337O3-4--oo#o####ooiyooo#--@3r3u+o##<<iyyyi<iii5555*##@---5@-*@--@:4-5#5@55#yodiiiy#iiiii%t*43@o4#i<d8-5pe&a4-o#-*###55-u3r8,",
",738raa3@4a-oo#555*o-oyy##*##-44ra42y#*<<iiy#i<i<#55-#5#5@4--#o5#-5-@+@-5554#*#-d%yiiiyi#oy#o#5uh4@a*i<ue-oo3,:a4o#*<##555547r33",
";3rh&33raaa@5o5--*<ydy##*#*##54:a4@p#i<<<iidyi<i<*o#####-4@-oo5*-#-5-4-5555-5*#2pyy#iyy#ddo#t#oqh.3@*<*%q#-%,8@@-o%u***55-@-q34r",
"eeee&a,&34::--5#-#<iyy.hh8#*544a4@--2i<<#*iyy#<ii*55#-555@4---tq4##55-55555-#5--d#ii#y<ioy##p*-rh%8####d4-oqq+-o%96u***#*#--4a48",
"9&ee&aa3ra4a-oo##5#ii#%8je-##-4:a44d2*<<<*iiyyi<i**-5#**#----#:j6$-*55555#---5-4d2i<%u<i%doo5*@:&8a--5*2#o2%,8%48qd**##-#*##-:8&",
"hO3q;3aa3+a3--y5***ii#-#o--55--:a4@-25<<<#iiddii#*#--5**544-t--#%,#*55-555-5#5@u2yiido<#.u###*oa,:#555#2*oq383do###5**#5##--44a8",
"+aa4O&r834a44-##i*#ii#o5-555-44:a4-#2i*<<<ydod#**#@4*#**#+@----55###5--555-#*#-td#<id#*y%%###*uOOa-545&d*-arhaa4-5##**###55#qq+4",
"a8a4ar3+3aqaao5iii*ii#5#5---5-4:4@-#oi*<<<#y#oii**-#*5*#-@@45--#-45#54-#**#*#5-42#<yd**%%dyd*#@&3@-5-uj-*yha:4@4-##**#*5#5@o-:q@",
"4a3a4aaa3r7%3o5*<<ii##5#5o45--54@55#5#**<<##i#ii#*5#<*#--@-455-5o555@@3p%-<*#---5iiyy#iu%i#y5#%93-5#-&e---8,3aa4-#******#---t4q@",
"a8O@53:a3aq23dyi<<i#yy*#o5-55-#-@5##<*i<<<i#iyoi**#o***#o4@@5--#-o@@@@@e$$8*55@4y<iyi<yuo#yo44:q&55#-&hh3he&3q:q-55*#**5---44@q:",
"da&35:3ra4@d%-iiii####*5y-5-55#5#55**5i<i<ii#opii<*#o**54@o4---5o5--4-#*q$&###-u#5%y<<yqo*%##.pq@#-5484o47ee&he&2t3#****#5--4--q",
"@48+5-a344@ydy*<i###o-##y@#555##---#5ii<i<ii#do#ii**oo#-4-o4o4-oo#o-455**-**5-55*dqy<i%%*o4##-:4o*#-:-5#3&7,&&&8-qo##**#5o#-4:4@",
"@8+a--a3r-oooi#<<####t-*y##-5#555-4#oyiiii<ido-#i#*o#o--:---o4odo#o--#5####*5-#**2d*<y%#*d#*o%3%o**#:-#488,8,,7@4&#****55--::q@4"
};
